<?xml version="1.0" encoding="utf-8"?>
<!-- Generator: Adobe Illustrator 24.3.0, SVG Export Plug-In . SVG Version: 6.00 Build 0)  -->
<svg version="1.1" id="Ebene_1" xmlns="http://www.w3.org/2000/svg" xmlns:xlink="http://www.w3.org/1999/xlink" x="0px" y="0px"
	 viewBox="0 0 40 40" style="enable-background:new 0 0 40 40;" xml:space="preserve">
<style type="text/css">
	.st0{display:none;}
	.st1{display:inline;fill:#787878;}
	.st2{display:inline;}
	.st3{fill:#41AAAA;}
	.st4{display:inline;fill:#EF0137;}
	.st5{font-family:'NotoSans-Bold';}
	.st6{font-size:30.628px;}
	.st7{fill:#EF0137;}
	.st8{font-size:27.6056px;}
	.st9{fill:#41A9AA;}
	.st10{display:none;fill:#EF0137;}
</style>
<g class="st0">
	<path class="st1" d="M17.9,11.3c0.2,0.2,0.2,0.5,0.2,0.8c0,0.6-0.3,1.1-0.6,1.6c4.4,0.8,7.8,4.7,7.8,9.2c0,5.2-4.2,9.4-9.4,9.4
		s-9.4-4.2-9.4-9.4c0-4.7,3.4-8.6,7.8-9.2c-0.3-0.5-0.6-1-0.6-1.6c0-0.3,0-0.5,0.2-0.8c-5.5,1-9.7,5.8-9.7,11.6
		c0,6.5,5.3,11.8,11.8,11.8s11.8-5.3,11.8-11.8C27.6,17.1,23.4,12.2,17.9,11.3z"/>
	<g class="st2">
		<path class="st3" d="M15.8,8.5c-1.9,0-3.6,1.6-3.6,3.4s1.5,3.4,3.4,3.4s3.4-1.5,3.4-3.4S17.6,8.5,15.8,8.5z M15.8,14
			c-1.1,0-2.1-0.8-2.1-2.1s0.8-2.1,2.1-2.1s2.1,0.8,2.1,2.1S17,14,15.8,14z"/>
	</g>
	<text transform="matrix(1 0 0 1 27.6254 25.5705)" class="st4 st5 st6">!</text>
</g>
<g>
	<text transform="matrix(1 0 0 1 23.8691 30.6553)" class="st7 st5 st8">!</text>
	<path class="st9" d="M19.8,10.9c0,0-2.2,3.8-3.6,7.1c-1.3,3.1-2.4,6.9-2.4,6.9l-5.6-4l-2,2.9l9.6,6.4c0,0,1.3-5.8,2.7-9.5
		c1.6-4,4.7-8.2,4.7-8.2L19.8,10.9z"/>
</g>
<path class="st10" d="M0,0v40.1h40.1V0H0z M36.8,36.8H3.5V3.5h33.1L36.8,36.8L36.8,36.8z"/>
</svg>
