<?xml version="1.0" encoding="UTF-8" standalone="no"?>
<!-- Generator: Adobe Illustrator 24.3.0, SVG Export Plug-In . SVG Version: 6.00 Build 0)  -->

<svg
   version="1.1"
   id="Ebene_1"
   x="0px"
   y="0px"
   viewBox="0 0 40 40"
   style="enable-background:new 0 0 40 40;"
   xml:space="preserve"
   sodipodi:docname="single_ack.svg"
   inkscape:version="1.3 (0e150ed6c4, 2023-07-21)"
   xmlns:inkscape="http://www.inkscape.org/namespaces/inkscape"
   xmlns:sodipodi="http://sodipodi.sourceforge.net/DTD/sodipodi-0.dtd"
   xmlns="http://www.w3.org/2000/svg"
   xmlns:svg="http://www.w3.org/2000/svg"><defs
   id="defs4" /><sodipodi:namedview
   id="namedview4"
   pagecolor="#ffffff"
   bordercolor="#000000"
   borderopacity="0.25"
   inkscape:showpageshadow="2"
   inkscape:pageopacity="0.0"
   inkscape:pagecheckerboard="0"
   inkscape:deskcolor="#d1d1d1"
   inkscape:zoom="24.525"
   inkscape:cx="20"
   inkscape:cy="20"
   inkscape:window-width="1920"
   inkscape:window-height="1177"
   inkscape:window-x="1912"
   inkscape:window-y="-8"
   inkscape:window-maximized="1"
   inkscape:current-layer="Ebene_1" />&#10;<style
   type="text/css"
   id="style1">&#10;	.st0{display:none;}&#10;	.st1{display:inline;fill:#787878;}&#10;	.st2{display:inline;}&#10;	.st3{fill:#41AAAA;}&#10;	.st4{display:inline;fill:#EF0137;}&#10;	.st5{font-family:'NotoSans-Bold';}&#10;	.st6{font-size:30.628px;}&#10;	.st7{fill:#EF0137;}&#10;	.st8{font-size:27.6056px;}&#10;	.st9{fill:#41A9AA;}&#10;	.st10{display:none;fill:#EF0137;}&#10;</style>&#10;<g
   class="st0"
   id="g3">&#10;	<path
   class="st1"
   d="M17.9,11.3c0.2,0.2,0.2,0.5,0.2,0.8c0,0.6-0.3,1.1-0.6,1.6c4.4,0.8,7.8,4.7,7.8,9.2c0,5.2-4.2,9.4-9.4,9.4   s-9.4-4.2-9.4-9.4c0-4.7,3.4-8.6,7.8-9.2c-0.3-0.5-0.6-1-0.6-1.6c0-0.3,0-0.5,0.2-0.8c-5.5,1-9.7,5.8-9.7,11.6   c0,6.5,5.3,11.8,11.8,11.8s11.8-5.3,11.8-11.8C27.6,17.1,23.4,12.2,17.9,11.3z"
   id="path1" />&#10;	<g
   class="st2"
   id="g2">&#10;		<path
   class="st3"
   d="M15.8,8.5c-1.9,0-3.6,1.6-3.6,3.4s1.5,3.4,3.4,3.4s3.4-1.5,3.4-3.4S17.6,8.5,15.8,8.5z M15.8,14    c-1.1,0-2.1-0.8-2.1-2.1s0.8-2.1,2.1-2.1s2.1,0.8,2.1,2.1S17,14,15.8,14z"
   id="path2" />&#10;	</g>&#10;	<text
   transform="matrix(1 0 0 1 27.6254 25.5705)"
   class="st4 st5 st6"
   id="text2">!</text>&#10;</g>&#10;<g
   id="g4">&#10;	&#10;	<path
   class="st9"
   d="M19.8,10.9c0,0-2.2,3.8-3.6,7.1c-1.3,3.1-2.4,6.9-2.4,6.9l-5.6-4l-2,2.9l9.6,6.4c0,0,1.3-5.8,2.7-9.5   c1.6-4,4.7-8.2,4.7-8.2L19.8,10.9z"
   id="path3" />&#10;</g>&#10;<path
   class="st10"
   d="M0,0v40.1h40.1V0H0z M36.8,36.8H3.5V3.5h33.1L36.8,36.8L36.8,36.8z"
   id="path4" />&#10;</svg>
